<mxfile host="app.diagrams.net" modified="2023-10-29T13:36:48.465Z" agent="Mozilla/5.0 (Windows NT 10.0; Win64; x64) AppleWebKit/537.36 (KHTML, like Gecko) Chrome/118.0.0.0 Safari/537.36" etag="TW2OoV-Mzjc4khXqHwFx" version="22.0.8" type="github">
  <diagram name="Page-1" id="CzqdXVr6dt1cqmThmpnp">
    <mxGraphModel dx="2045" dy="625" grid="1" gridSize="10" guides="1" tooltips="1" connect="1" arrows="1" fold="1" page="1" pageScale="1" pageWidth="850" pageHeight="1100" math="0" shadow="0">
      <root>
        <mxCell id="0" />
        <mxCell id="1" parent="0" />
        <mxCell id="bNvt7dfCmnMS55hBL8AI-30" value="Google Cloud Platform" style="sketch=0;points=[[0,0,0],[0.25,0,0],[0.5,0,0],[0.75,0,0],[1,0,0],[1,0.25,0],[1,0.5,0],[1,0.75,0],[1,1,0],[0.75,1,0],[0.5,1,0],[0.25,1,0],[0,1,0],[0,0.75,0],[0,0.5,0],[0,0.25,0]];rounded=1;absoluteArcSize=1;arcSize=2;html=1;strokeColor=none;gradientColor=none;shadow=0;dashed=0;fontSize=12;fontColor=#9E9E9E;align=left;verticalAlign=top;spacing=10;spacingTop=-4;whiteSpace=wrap;fillColor=#E1F5FE;" vertex="1" parent="1">
          <mxGeometry x="240" y="350" width="420" height="175" as="geometry" />
        </mxCell>
        <mxCell id="bNvt7dfCmnMS55hBL8AI-3" value="Users&lt;br&gt;" style="sketch=0;outlineConnect=0;fontColor=#232F3E;gradientColor=none;fillColor=#232F3D;strokeColor=none;dashed=0;verticalLabelPosition=bottom;verticalAlign=top;align=center;html=1;fontSize=12;fontStyle=0;aspect=fixed;pointerEvents=1;shape=mxgraph.aws4.users;" vertex="1" parent="1">
          <mxGeometry x="30" y="380" width="40" height="40" as="geometry" />
        </mxCell>
        <mxCell id="bNvt7dfCmnMS55hBL8AI-6" style="edgeStyle=orthogonalEdgeStyle;rounded=0;orthogonalLoop=1;jettySize=auto;html=1;entryX=0.5;entryY=1;entryDx=0;entryDy=0;" edge="1" parent="1" source="bNvt7dfCmnMS55hBL8AI-4" target="bNvt7dfCmnMS55hBL8AI-5">
          <mxGeometry relative="1" as="geometry">
            <mxPoint x="50" y="660" as="targetPoint" />
          </mxGeometry>
        </mxCell>
        <mxCell id="bNvt7dfCmnMS55hBL8AI-4" value="Github Repository" style="dashed=0;outlineConnect=0;html=1;align=center;labelPosition=center;verticalLabelPosition=bottom;verticalAlign=top;shape=mxgraph.weblogos.github" vertex="1" parent="1">
          <mxGeometry x="31.5" y="690" width="37" height="37" as="geometry" />
        </mxCell>
        <mxCell id="bNvt7dfCmnMS55hBL8AI-8" style="edgeStyle=orthogonalEdgeStyle;rounded=0;orthogonalLoop=1;jettySize=auto;html=1;" edge="1" parent="1" source="bNvt7dfCmnMS55hBL8AI-5">
          <mxGeometry relative="1" as="geometry">
            <mxPoint x="50" y="530" as="targetPoint" />
          </mxGeometry>
        </mxCell>
        <mxCell id="bNvt7dfCmnMS55hBL8AI-5" value="Vercel Build Process" style="shape=image;html=1;verticalAlign=top;verticalLabelPosition=bottom;labelBackgroundColor=#ffffff;imageAspect=0;aspect=fixed;image=https://cdn1.iconfinder.com/data/icons/ionicons-fill-vol-2/512/logo-vercel-128.png" vertex="1" parent="1">
          <mxGeometry x="29.25" y="590" width="41.5" height="41.5" as="geometry" />
        </mxCell>
        <mxCell id="bNvt7dfCmnMS55hBL8AI-10" style="edgeStyle=orthogonalEdgeStyle;rounded=0;orthogonalLoop=1;jettySize=auto;html=1;" edge="1" parent="1" source="bNvt7dfCmnMS55hBL8AI-7">
          <mxGeometry relative="1" as="geometry">
            <mxPoint x="50" y="440" as="targetPoint" />
          </mxGeometry>
        </mxCell>
        <mxCell id="bNvt7dfCmnMS55hBL8AI-7" value="Deployed Web App" style="sketch=0;pointerEvents=1;shadow=0;dashed=0;html=1;strokeColor=none;fillColor=#505050;labelPosition=center;verticalLabelPosition=bottom;verticalAlign=top;outlineConnect=0;align=center;shape=mxgraph.office.concepts.website;" vertex="1" parent="1">
          <mxGeometry x="31.939999999999998" y="480" width="36.12" height="30" as="geometry" />
        </mxCell>
        <mxCell id="bNvt7dfCmnMS55hBL8AI-14" value="Integration" style="edgeStyle=orthogonalEdgeStyle;rounded=0;orthogonalLoop=1;jettySize=auto;html=1;entryX=1;entryY=0.5;entryDx=0;entryDy=0;exitX=0;exitY=0.5;exitDx=0;exitDy=0;startArrow=open;startFill=0;" edge="1" parent="1" source="bNvt7dfCmnMS55hBL8AI-17" target="bNvt7dfCmnMS55hBL8AI-5">
          <mxGeometry x="-0.0032" relative="1" as="geometry">
            <mxPoint x="280" y="611" as="sourcePoint" />
            <Array as="points" />
            <mxPoint as="offset" />
          </mxGeometry>
        </mxCell>
        <mxCell id="bNvt7dfCmnMS55hBL8AI-17" value="Authentication&#xa;" style="shape=image;verticalLabelPosition=bottom;labelBackgroundColor=default;verticalAlign=top;aspect=fixed;imageAspect=0;image=data:image/png,iVBORw0KGgoAAAANSUhEUgAAAckAAABuCAMAAAB7jxihAAAA/FBMVEX///8OERgAAAA+z47///3//v8QEBgQEBoOERcOERoNEhcOERZ7fH28vLz///z8/Pz3//1BzZADBg/w7+9LxpAzt30xsXgABhEAAA2WmJqOj5FCRUUvrHQAAAU5w4Wztbfi5OTIyMgrpG43v4Hs//opnmlSUlUmlmQ60I3S09SEhIWlpqdub3O3t7gzMjc4wIBkZWff/PLQ9OchIig6Ojze3uDE8t0ghVYqKzAjj15cXV8aGx5KS06n5MuU2bxhxpZyy6JpyZ6F1bFVwYyu5tCz9dfG8+QkelQsh144lWs+pHdFsoHZ/PYYGCB11auR0rmhz7u12sp4x6ZZuZPjCjBgAAAYWElEQVR4nO1diV/bSJaWypIsWTZlJAiyibENxO0LMMHO0OCEXJPdnV52utP///+y7706VJIPzJFmSOubX0+DKJeq6nv16l3ltqwCBQoUKFCgQIECBQoUKFCgQIECBQq8SDjwj+u6nLsu/GA57nMPqMDD4DgWMWjVLddxXadg8qWCqHOc8/cf3p/Dj47z3AMq8EDglnS23t4clEo3bx3uFky+WCCR5zd9QOljnRd78iXDqX8ulUr9Umn73CmYfIkg28bZcpz3SCPg4C0Q+VNTyUHpCMCP/LlH86RAc+fdTqmUMrn13EP6kciw9zPJrIt4u9P/+zBpNec9gXnnuQfzlHBBRI9vSimT1k/OpGVVWSLAOs89lCeE6/L6MVo7pe2/EZM2IAhs1tn6adQruJK8/v4AWNz+OzFZIfg/EZNgtbpg7SjV+rdhEvdkxbZ/Ju0KduvbL6VSweSLh+sefyoVTP4EcOufS/1+weTLB1g7GSILJl8iHNe10NrpbxdMvnBw5/xLqV/K7Um3YPJlYcupo7XTBz9yu2DyJQM8yfpncUZmmPxWaNcXhrplgbUDOzKjXAsmXx64C9aOYLFfMPky4VoOB916vpPdjZLJd5bMPz8UjoOZa/NXy8wIcpdbW1sy1WsMCh7DBxH6McdHDvXHAQ5+WHe6srTBoZb67ZRYdl1zSiaT3OwFWvKl/YpuzHYOZQPNXuEXjo/Tma4YIjVMf4PVeUTCG95R/5Q7IZ+KSVxLy5rVmtVxddju8nxud3nnmUWR7TOf40Ig4kGt1h3E6wfJu6Mhvn1U64i+1zCJL4m77UajXRvgC5bLBz6NRa/NUTdWneaYxLLEuNagV1OjZXWKuDpW58Ro9XAisbi1/iHvfzwdk1bcuGQaV+3sHwdNiWHXHJPbUM+bcdp2qNp2cFCD6q3sNBrXcJA5qadf3XYvfTmzq4OF4WW1a9yY6ta99qpFNVsxdtnsLLydFq09Txvtj0CnLB5UjtVpXqStLoazhXlsChAeF6ydbaqle3ImofcGrLQdBBVcrXKQsOuaKXYnehKNzAfTlUqZrOlnMN0BtPBsiRZLGjxXiOOgYh4xlqhGMAKbsWkXDxSjXWZPDmGwHrUEJDAo1+IZlUubtmr0CthjbIKa2Xw7TLxms71Mo1F+i0NnnTFje4F6YwVazQdi6PcGlrdibGe79PRM4qx7LAx9YFLCDiM2NqZ8wvBpuRzkmNyP5Gcik0mREw6AySGseODJPm2glJ0OcoobxH3OxAqpdrSiw6zQG0zOLpivesWHns9OZ9let7jVtc1e6Se/xU6sDJMWH7N01gDPDlkvtnIASfPtTDuQyip/0J6EY5mKW0vb99Wua+wM1cKKT5kXVvyK2haY0a2wq7QJMFkO8PEik6J1hklKCQOTIMnhrVpGalcpJyynuK1B1ALJSV9fqcAvtscmy/dk0m21SOYEOdSrl7BuprUDi+8HNA1f9upXwkrZy43f7SGRxsaFViAXcaYrYNsPcPhGuyDw2f4C43dAFEXy44+Lpo5m0rXqzgqkpqXjLmd7i+Om8LxyuSyWW86JVbW9dsIqNN/snnSt/T07pNZRrMWlxpQyHcufygSxArCYbf1xlLEZi+CP+PIy0QKtvTD0oF3VHGRV9WpfRCGN1UeoF3hIpRwBqu82gybUrCy4xt9C+BDsSs2Ro3qV+wyZx19ZLz0FwQLuMc9LZVGWLmCz0/ieCpYuY9U/H6wiEpl0lWG2QJYr/ma5OVvTQBPm48O0vXJg7+0pGfXtVNBPQHTp2X2YtFvy3x5BMRmyrmYSJMWLPLHoXlnTQkyGrLaMSWBPMBkifCUqIZyfagQcxMOnTuH/Avle7Bb/SU/0rXSowCNOXO10mGWqx5BIfdTrMUjG72f1uOiSfT3rb6/alAf/PL4T9dUHacyADR/mDcrfnl7SmYDDDaJT1eRhTNpyy3hlk0k/CtVi0q7waME920/ITErwd1xzL329yaSSDL+SHgfIZGsq+8RxnUayVy9spb3iA5+NVZcOv4xkBxHYWKdg1EjebcOAq7KQxg7/RNQX6vayJ1ajSQbM5gBt8Q2tnZXq9Zf/Qvy3wP8I/EvgN4E/P74/pzr1JfuyAeZM6OMkr2ZI7Og6kXLKlDfwQCbFn5ChRGpXIhXVtiSyw/ABbsGI7Tdq3dqox2iTUrtaGp/IMulLgiKDWjA6KVDhcPcEew1RHCJ2Nep2a419FvqCWj9lqStl1mPzLvr6tVNpZwfQl1h5aCOl0PfZRbVdOxlNIuZJxv17B5zc/70BQ6e/ksk3/yD8+uuvv/zyyxvE4eFrwKtXu7tHR0cHB2ewcW/eUVeLTE6TMjEJC+yI5SVZRSaHj2YyYheTxqgxuRC2vji6xALgUdRkUpkmoTrABpeJPDhbk/RdJpMw1GQyOqm1q5fiaYirHYUuR7MAjNN5QsoXXjSdyc+3WSh2ZZkYJ4yl+k966ETCkQdHomByryeZ5FPazcD4XjKSH4sb6uAMcINvHCJAt6r+fRtovItJQeQvgshDk0hg8qBf2nm3VBNwBga9D0xGMXdcOlcHIKzBHoj9/OFMirOEXUu/ndfEqnvoPQhjBpcO1aAfhnbZ71hcmtkd9Fw89DPCVO4Ek74NH4ezbij3lXsSJnC2wbtgbdGUQgMPNjr8Br0GyZxL453jsDz8dNDSNvlUOpKoejg1iqEn38f9rgUAh+KDm3U5k/FGnm7mwFTDdxLpbjn1D6utHc3kr7+mW1IRqZk8wA76O+d4+Tn/hpnw/2w4lpTxZ11hIKPanqmY6f2Z9GkLoG+mQiZ8wsry4AwYFzGBGE4dRJDxTYZMmRQz/UwwGZLeZUagKT5tBbLXPZQ77LXNWsA5CKPxeeExESryAb+WD3A0UmaaeBCORwNJEGxJMWDsyli5tpDWir0YR1gJfMHXgyXhgDVMpjtSMynafagvuTE7kHoLfULxV+6cDCm46Ch3+wF7Eols9SjGLlcF5MNWTKJZigHP5hVugCS6THUUd7osDPVmkZB7Eo86eKpbwza68Gyl62KhsgdDjP21EpZqZxCnJhM+hj4o41AxOZCGC7cGVRH21WujTKCRDimQgzBPBJNJb/MLR64D1s4dTB5mdKuxI7NM9j8dL2xJDrpITWgsFtIRu8gMKTyASbL4uWVenOcqcCfUq/xDpzacw6sdSx45aGUoJlM/pCp1MxDZzM6gm8pHO/UDZ+3xFH5X74anQyZNXWWm8AtJUzRX4X/ZVo94qKS8xZ0t7aJzR25KDDltFOlxaRnOb/pL8h95JvO6VRK5mypXYPLL+TL/R62Ex6btjjAq803uz6SHXvjIFAcXo15y90RTleUSf4zp42qnXSXSfzHc+Krq1WN5E2OepPLBzTfGMWXVRL/xha0ktqM+KM/JoHXRmNFGdbkpv3iSCrJbYyuLjmZyMdi/BKS76x9L6xwQYujQsFsPTSKP5JYUH+9vny8ToCvwkOBcg3UCf+H6qtldPMUfyGRMgqxbOzGTkR6f6KAsJs3TURuUx93RPlP+vHF6aiazoR+UurYKsEZzVGFSp3BSL6IN79QaF3tBOcdkU+pOeBtjt73hSccVAqb6juW07dbkpJ3BKFFMnlgbgNKCH+7Yj2JPat16mDskz2hHioKR/s7xMq0O9lmAITo6b8g/P8WsDcqyMh0foF0DsBxzb3Osntg+vsc6Mgqp3SI+qDXG84SJnIydMukYTILxaZo7Aup48O1ruV3xSOMiPzloNydTw/VUTIpAIVqqYONidJ/c3stqV2h9IWNgDEprqsVykMJj5wK5q5iE2X7duZvI0ut/LDNbiUrFJJ60/Y/1pefzZWIGkXFWlFayUu/zIf5kkD/QLIfigijLKR+k+2ajKxE+SfzMQBaYXFb9wS0ZqoFe9aGFlA6aIvHY2sv1qpi0wJr2fD/Uf/GjFrvAI4FKIVw8gkN7HYDJnIpYxaT1bWeDLVl6vWC2ZpgsUTKsj/HZpWUSg1xCAD2oFpsYSf6HMTlamM9IM6lsGTQ1exQDKpft7IovZdLMn6lepV+ITMoBw2dOTkWvgZ2HZpLHUYLBgpRJOyhHIppATLeVO7SGyfwJuhzu+c0GPJZKrwy79XVmS0omSbdufz7my8KvGEneyzHplW122dFNHsZkPn+ljzRiksx+2JJV1sKQzkKYejmT9m3e4HGUyVNBN0Q4E5jzTMpG5F4SZTBJn52xxGQStTemHgdkObkoeHcxuWALLSey/nmTHamYXLYllb2DRtOnc9T+i0zCcnavzRCbyDXYyXXsPNyfXMKktYTJeEppY3PNE5VDWcqkt8jkvtausZzPIGp5+V71QamZxKNyyjyTSUqURSKi4OJw79yTG2lX991BvrR1FZMmkZpJFd8R4rDz1nHry7Qr51tWPDRKJQSTMErtWa9mMriHduWGdhXnpMvnDEM0FI0ti1xDMp9oL2SByWDxnHSsU6ldbeWgdFqkYzCVVfb26LC8vZpHMoKge6BweyMya0QoReq3Ll2aXk0zmTd4UmzEZP3j0gKsBWwDk9L/OMwSqaMC2/2Dr+tfFoP1j2yKMg+R29POUk1mmu1FJu1VTObF1Ukzu3Yogl+uMoF8vxKCyTxutjFONtDRusU96bNBrkbSiqVF40fXspqnJ3Z1EPhou1UbNfQWG7rXju4VwakaDCduq7KACgqhS+EvNe3uKsw2iQwcfyltyKThSS5uSWzS3/6w/tsmReFhs9fCYiciEplUh0DKZNOI/XP3dDWTvh1dZ18BDS6EivMx+kP1k9KjA5clHOmOu2zlnrTzZj+8tivjDT76k46VRn2CgE3TKFFzOZM4cbfbuIokmyRo9gWV6XY0k3n1ck8cC+fhbuyaTL7KMblNRH4/5usrFWSMlQ9GeHJ5lFfyfLm6msnMAe9yNdMlEXRYtQXXT4V47ehSrOVI+ebly9jaEjXI7nomo4v8yNVG91W5ykR6VQEeD1yUNnNrmCxaPBbVitDPfDbqMWnphp7UwBeRnvayaiisq+GbZJqPdzY7JoHJN6l2NZjUp2T/5pyySEshS7W5joSOWCiZVEdKVzFpJ8aedLtrmAzBLe2ZyTuQlCvluOJmx/ZXLbXmNRyfDJWNVjMZBh47ydbRdVggrRqKu2I8NdUU2o/iwG9uT3Lps3AdNuzKjkJlkY1bKqUcO9la5e581BHf3rEBkRaWnG/M5OEK5YqBvv7OO2ftt4TNTqrTE7XgHI4UxaTcVfrAsDPFNZPWOiZBO7dNXQzyoIM3J2I4p1Lmw4SnwR7sdjWToPhjU5rAvVfFe5QLoRiblLoeRu9Ur8wLF/dkp9acN9NYbU1lrkGd4nBOdC6kmsvR49m63xy4Gyaa329Co2DycIm9o7YkWjvu0iwzSiacES1phMnYJ6Zqy2VwDsqKyZnmILrkMt0q5r3ynAzh0BGSoNZpxnzZiwdrTiHza8lkdMop+kqIVUp+kUkfevBac26RHqZyliaWMAri5kKrzJi587dkerjLlLehmByMJtdUd57G7rkg21cHY4w1Ix5awalL5WAwsM38CpY5R+ONrhW4x190GqS/BkK7Zrfk0dGZtHegiw/15S8gy49qjICRJFZFkc4AazIqoV+WqVrHYlSeTnpmP5ZauK3XcGX1B8q2YrKdPlfHDr+WkhAStRh2Acmv6jqZxbireHw5EBeOYKnH6XNMYmWYbPXwKBMU8f3IMyPowEZCE8d0hiOzqDyWTmeIJc74uSEri2pLmolLCXKOBQj0ydBPphvlJ7kjg3Xb6wFMHh4aTBoR1wPUz9+PVyhzEtZpJMWwp6ULx2+HII+JCo3BgkkL3WtFzUEcz9pzZnjNK5iEXXk66oDC7rT3jeaY2qXmSrvSHtjSAnIHk+WETbox5/GsGaWPo7LMheoMRqjfY1ENX47JcUsUWe5hMEsUALW1lySz2R2mivJCUa+GAOdbzCX0jRToOmy51rebg032ZPaYzDJZujlfVehKItxQXgOby6GO6JgE/Zj0VEvtI3vwB+ESJ7adRkCieGspk+UArPvby1szF4ERB5lw0lamnUg9HjexdOoOJjGi1rq49JgpTFhpJXaWyiCH0bQjeu1MmL3AZJfcEs+3k0v5clWfA0yq9zaFIQ9mPDi8+w0srrtKlI3lR+Fa8yNlEhodf/2/my9fvuysw81va5zJ/s63lSXLZPNLAwG84ojNm6PR8JRRiXdAEkeAE+wyUp6fcTkiRbKcScVz5je/1bFkWXxbWysRm5x0a+1xxIwY2wom5VWUKBNJa+3jvqK2yuKsVJJkiJWXV4wZgTt5Tjr8VNXjRmxaHY2a8/SAHmqGpokn/WvPExW5LTtNu9U2LP7A7B0ccfW78G/Qrq/zW/JM2DsHX52V9hVqV4yz3FKYyrdFZGtPlPYHdnQrD044H7QVJ6665LlqLWcSq8QxB5gW/gt+1AWH+FYG2kCOaJlaKsC0mkmfNAGWA5qdYvXWlmRSua3Yq1x70WuWST1SPwwjmnjaWSe1bjFSIoo76Y2VsBIqQw+LVjZjEo1scRtgfavfF7akrvo4WGXtCCap62kCIwtpYQIcpE/yG/isJseJlZpYTiVu7gRBIC5H2EFL3SIBf0vNSduu2Im87GPj/+jeBSippnFzeKS+IhJbePhmUMit28Bg0jKZrPi3tx7d4KjgxpADCXy6oqCvYU2Yvt+CExM8RrdqI83E3B04/WlUUjYDMvzwkg9lVqX1B3IR4Z+xhU9S5EtJDtg+30y5bo7fl2RBiMh+6eOxy+8ShM51EpjXLOAHTFGCijHKjWKRjxaazRclU2ycUOuQbmVkmER/csrEnI3LfCFV4KcBFhAQuu0ntBwZFx6bNFuy1zRIVmX4oFIJL2vM6NQWA4lAzaX3V3l8HYW+cpCwgplsz3nki15VNJnzubohqNQM/du8pQbSMQiZoYX0yUJW/FN/J/vvMi+pE5OCSWnt3MUk+I9TZqaASL1R7Mv06+NLlp0wUN1lYn/6y5hko4a4nGgbi4R2CTeY5PtMHzviThebY1ydNpVRdaC+3zW8hn28lx9IZWAIHYx65rf0WVYWRFbBSBeZDqOIive0j5vyxK64GdCA5emZ8xDtynCwP+rLBpbjdyPmaiYm0dqxNrkki+neDJM2a43yAscnmL0lmgKyYBugedSJNsgz6WOs+yRhOpNLN4h6qNmy308wZomnr1yBgzHWyS9b32bg+juXo5CyqZ6+gwUix6oL32HQmeOtZ9Wr18K4+5XMe2Yu3jXwzjW+3pcTY6yZmzcWBUZ4N5A+ra6SXG/mf9wTfyxmJumMPHgvDtr1VOL3WliDibDKEGj3DElz5D7ZxcRXBAoKbxqgexXrNF1bh3V1LgRXL25i/CgC4L+vumppUjjUK6UIw0ReS9cX3Pd1s7F5Dx6TiqyFvVJwaiZnkQKG3r7G9+Kiw5snM3g0VD2kOx033FDMyQcTCgc5ni2oTEwTjS7IcCJtDR+4HnHrYXea1wOYfL1o75wdfK6L6a2nEstqt0B7tqvyawNOqzVu4bewZGSA7sDMRuPThCXT8Si2toRuEdc2029MSfOTDWJ30BxPLy6mk2ENbxY4PLfmqGtnjasABanXHFBAn6u7oDqKZnF1ORQ+jyZqtzk5vb2cjptdThG5bK9UGdcdzlF87KtGhypZuezDVIkYteEn1X0x8YtxO7Zy99ctykjDG2eNifjui8qkMRAj35SfzSGZ1IE6oVvPPq2K7awGj+OV49tQBE3tep+Loj/mP9a3aa8w8TWXdfQ81rZ6Avzx5nXWlyTl+uU89/0Zfw1MJn9K/Mj/hpBg8pURFTg7ONj9Rmrzvn09epyZPfnYzv4j8QOpzDOJAZ6j9/iXh337z6Pw8zP5A7HA5MHZEVg7SyvpfjgKJh8BYjJT5Xp2c+w6D/sSp8eiYPIRSJk8OgIm4ZD87fwH2YJ3o2DyEfgje/X17Gz3nVUvmHyB+OMw40we7X4AHp/rq3sLJh+Bb28yPsjudyDSLZh8gXj7JuNMfqq77mZ1mD8CBZOPgMnk2RlYOxZdGnse1JjIV/+0MZ4fibdv0sQkWjvPCG58q2/+TnOBO5EyCUS+r9+Rxfqh4DzuKMTPEpl40UAmd4nKs6Pva+p2/mI88JvC/854e6iV65/HzxJsLfA00Ewe/fZ21X/x4q+D8Y1JBe4H9/xwl5Tr2atvzxakK/AUOD8UHsjuv58tRlfgSXD8L0Hk94LIl416/Tt+k+vun/ev2ynwHwXXPf/z9avXf54/90AKPBIud4//+PDH8XNGWwsUKFCgQIECBQoUKFCgQIECBQoUKFCgQIECBdbj/wElcnHq2mqvYwAAAABJRU5ErkJggg==;" vertex="1" parent="1">
          <mxGeometry x="366.90999999999997" y="590" width="166.18" height="40" as="geometry" />
        </mxCell>
        <mxCell id="bNvt7dfCmnMS55hBL8AI-19" value="" style="strokeColor=#dddddd;shadow=1;strokeWidth=1;rounded=1;absoluteArcSize=1;arcSize=2;" vertex="1" parent="1">
          <mxGeometry x="420" y="415" width="160" height="60" as="geometry" />
        </mxCell>
        <mxCell id="bNvt7dfCmnMS55hBL8AI-20" value="Vertex AI&lt;br&gt;Recommender&amp;nbsp;&lt;br&gt;Model" style="editableCssRules=.*;html=1;fontColor=#999999;shape=image;verticalLabelPosition=middle;labelBackgroundColor=#ffffff;verticalAlign=middle;labelPosition=right;align=left;spacingLeft=20;part=1;points=[];imageAspect=0;image=data:image/svg+xml,PHN2ZyB4bWxucz0iaHR0cDovL3d3dy53My5vcmcvMjAwMC9zdmciIHhtbG5zOnY9Imh0dHBzOi8vdmVjdGEuaW8vbmFubyIgd2lkdGg9IjIwIiBoZWlnaHQ9IjE3LjUiIGZpbGwtcnVsZT0iZXZlbm9kZCIgdmlld0JveD0iMCAwIDIwIDE3LjUiPiYjeGE7CTxzdHlsZSB0eXBlPSJ0ZXh0L2NzcyI+JiN4YTsJLnN0MHtmaWxsOiM0Mjg1ZjQ7fSYjeGE7CS5zdDF7ZmlsbDojNjY5ZGY2O30mI3hhOwk8L3N0eWxlPiYjeGE7CTxwYXRoIGNsYXNzPSJzdDAiIGQ9Ik0xOC45MSAxMC42M0wyMCA4Ljc1IDE3LjgyIDVoLTMuMDdsLTEuMDYtMS44NkgxMi41VjEuODhoMS45NGwxLjA2IDEuODdoMS41OUwxNC45IDBoLTQuMjd2NWgxLjczbC43MyAxLjI1aC0yLjQ2djIuNWgyLjI2bDEuMDUtMS44N2gyLjgxbC43MiAxLjI1aC0yLjhMMTMuNjIgMTBoLTIuOTl2NC4zOGgzLjRsLS43MiAxLjI1aC0yLjY4djEuODdoNC4yN2wzLjI4LTUuNjJoLTIuMDlsLS43MyAxLjI1SDEyLjV2LTEuMjVoMi4xNGwuNzQtMS4yNXoiLz4mI3hhOwk8cGF0aCBjbGFzcz0ic3QxIiBkPSJNMS4wOSAxMC42M0wwIDguNzUgMi4xOCA1aDMuMDdsMS4wNi0xLjg2SDcuNVYxLjg4SDUuNTZMNC41IDMuNzVIMi45MUw1LjEgMGg0LjI4djVINy42NGwtLjczIDEuMjVoMi40N3YyLjVINy4xMUw2LjA2IDYuODhIMy4yNWwtLjcyIDEuMjVoMi44TDYuMzggMTBoM3Y0LjM4SDUuOTdsLjcyIDEuMjVoMi42OXYxLjg3SDUuMWwtMy4yOC01LjYyaDIuMDlsLjczIDEuMjVINy41di0xLjI1SDUuMzZsLS43NC0xLjI1eiIvPiYjeGE7PC9zdmc+;" vertex="1" parent="bNvt7dfCmnMS55hBL8AI-19">
          <mxGeometry width="30" height="27" relative="1" as="geometry">
            <mxPoint x="15" y="16" as="offset" />
          </mxGeometry>
        </mxCell>
        <mxCell id="bNvt7dfCmnMS55hBL8AI-23" style="edgeStyle=orthogonalEdgeStyle;rounded=0;orthogonalLoop=1;jettySize=auto;html=1;entryX=1;entryY=0.5;entryDx=0;entryDy=0;exitX=0.5;exitY=1;exitDx=0;exitDy=0;" edge="1" parent="1" source="bNvt7dfCmnMS55hBL8AI-21" target="bNvt7dfCmnMS55hBL8AI-5">
          <mxGeometry relative="1" as="geometry">
            <mxPoint x="340" y="520" as="sourcePoint" />
            <Array as="points">
              <mxPoint x="305" y="570" />
              <mxPoint x="120" y="570" />
              <mxPoint x="120" y="611" />
            </Array>
          </mxGeometry>
        </mxCell>
        <mxCell id="bNvt7dfCmnMS55hBL8AI-25" value="Integration" style="edgeLabel;html=1;align=center;verticalAlign=middle;resizable=0;points=[];" vertex="1" connectable="0" parent="bNvt7dfCmnMS55hBL8AI-23">
          <mxGeometry x="-0.1376" y="1" relative="1" as="geometry">
            <mxPoint x="-37" as="offset" />
          </mxGeometry>
        </mxCell>
        <mxCell id="bNvt7dfCmnMS55hBL8AI-26" value="" style="edgeStyle=orthogonalEdgeStyle;rounded=0;orthogonalLoop=1;jettySize=auto;html=1;" edge="1" parent="1" source="bNvt7dfCmnMS55hBL8AI-21" target="bNvt7dfCmnMS55hBL8AI-19">
          <mxGeometry x="0.0061" relative="1" as="geometry">
            <mxPoint as="offset" />
          </mxGeometry>
        </mxCell>
        <mxCell id="bNvt7dfCmnMS55hBL8AI-21" value="API Gateway" style="shape=image;verticalLabelPosition=bottom;labelBackgroundColor=default;verticalAlign=top;aspect=fixed;imageAspect=0;image=data:image/png,iVBORw0KGgoAAAANSUhEUgAAAOEAAADhCAMAAAAJbSJIAAAAdVBMVEX///9ChfQxffPx9v43gfQpevP0+P7j7f0+g/Q0f/T7/f9DhvRmmfXw9P7e6f3Q3vyHrfdXkfVglvWtxvqRtPh7pvfO3fxyofa3zfrr8f7I2fuNsfjB1PvX4/xMi/Sxyfqfvfmcu/i70Pogd/NRjvWAqfemwvk49WvdAAAIEUlEQVR4nO2da1fiOhSGITQlrSJSQETkoiL//yceBmc87jdpG9tcu/LMhzlrYHGyId3Z94xGiUQikUgkEolEIpFIJBIdKCez6XZW+l6GJcrXx4Vg/PpHVJep79WYZ77hRSbE+A9CFHzx6ntFZplX7Eu4bwRbPPhelTkmGw7y3WTkJ98LM8VToZDvD2zje2lmWHK1fFeKaghqdcdqBRyPs0X8Iq6aBLyKWPleYF9O9Vv070Z99L3Efry0CXhVN8++F9mHLZ6CKnjM9s1CQ8CxWPheZneWhUIexaO49L3QrsxkNSqYOMjnP5/4XmpH1iiK4Ot9OZoeMvj37NP3Uruxl/RoNv965R5F5HEa4ff4ExbfSvOMjsa9z4V2RfoJ2f77tUkGIvJ9wyeFygaEYD815isoIRGhlzFFGehGRPkjPPZXoE3YlryMJ0m287TO7oAExQpefwNroMi9LLM7ryAAQwFKUDbF0cs6uwPPWfEmveNEvwNx9rDKHkxwk8p2WQ5viezAeKbLF2vFex6pLsrwSQ0bsGeY6vfB82TsfJU9wB14UL4Lv4Ynx6vswwvVIsVJ+S7Qt1lMERt4xFiN64DqyO0ie3HQ2aTyFxHPNp1St0JxGH6xpz9iRJbbM33A2LzujXd6v3V4fFIlmdVG7nd6z2t40J+mwfeb020aTdBtq79uMH1i8YPhNFQaNH+BcBx3t8hevH2wn3w0JNDemfaXERLTB0rDW3FDX5wt0hnUNogzqtgMPS+EiD8ljID1Hc+JqM0MDLyo06Vq6IMYlQelCVh48Zim2qCVHlvYtJ2HOM/8X1BCwCO2wLAGtJphiKoGzvzoa6RkQNXUu8vRAsGaCBOJbUD0uHjxvSDzUKtmiA7UZvDKdBWIMs2nxqAZfVCmQviR73LmzBQcahFBmbKZB/m2B0WRYWcwVAGxGh9OcI4VTGYlHIFl6qGZZo2FdoYlhOPCfeB721xt319COC7cZ6CebUsIx4X70D5WLxmXkBZLeyj7vtiWkEYUhfuajBfbuxS9C+f+U17XemZKwi2NmTL3/pPhB1GSsNTPxtmiMiqinH6hOWMfHmK55tnVJDaFJCENRvkJt+0/oWyiB5kkIS3/qqmgihoa2ccixXLWTujhqzdq1ECp5vsHb4OJTW3NThBQmwKf07nGeSwED7qg6thotkl1qGpYyCJCIhgybDPNs4oHvFHpPkTDNNd0T0Muc4AMWwY5RN2DKuCWDXjSsLD/UCMREnBCAE1vCDdqdROHLWHeLKHUyFhDwLt0BBJCPFHqtlWjbOoIBZAQ3KdHPWUa8CbFiClWtGOjn/oX5EGX3wrqXICDqOGBiyLwaipwgSHqfcnu2qhOv9Yy+cQe8mLOdJfaj+vvPwtjmSZF7knOEIKT/25bwBU3m4rBZ0a2Hysqoe1H6tFwfDQ4CZ/ah+YYl/DeaSiqsrlD9SS0e7JhB68TCTcuJXwIQEK7JTVT24+hdwlzw7m0LhJatjBxJocLCZ1qmtH+Y+gSto/Jsy6h9dTMhRfC4lb1btNc2a7O48wahX/L+0ZpEel/Bt6TGwmd0uwBb1qTT+ywCzlIcyVrjGLoRBOzwIcSQ3UipFj0fAFeN9cgCJqjiZpR/Y+AexfL5oiwZmYm5F73SWNUXzu7FnAzCmRmCloHrZshDTnoDT4pZFg0s9xBS0hL97ChW6dS4QZmVgMCxkzc0VffNSUMWdOADFCpoJpGrCLkgW9QJAyWuVbqKfATnw4YxN2mlSDNWNAdYbSNFHu7Du1VX3y826o/+heUuTnwsyEQBdutizv2e14346y4/fn7V4//YJIHXLkN0yjIpVti+iBHMaBpxoMDLI0YNythSaNC9cPPrLGzXMme+25eM52rkSQEs9T9lP132z0zT2B4uxYQB/6al/C5sbzUAdb7nk6NRdAOwMHVxiWkVV3C/VUQ1jVN1WjSuMD2aSFcZy0kSrsnPh6HPgrS/1ht5sw2lBDnKPX3Errwfi8KU6DljSOhfcUEy5m50j36yRffx6F1aF9XyPGkrvg/LCxTUkXtwzu0zLQ58TQAQJXycAPXXTkNXpVuBq9KqcEzwDZnnAY9sMusR/IgYT9WqU2gISamWzw0qYauaEp4DE++F2QcHNYWz0UsuoDrNMBBybRmLeargWuAuvlo7tJ5mv/kqWHn4TUskZz3OZ0i+dEQHoQqhGiuPiarbpy5qnn1VXBA9UT93Y3g/cZzQSDU+NTvvWVzE3e4YCVerf6A6t8i3PJJhEbIa88A8JxiMkqhd6pOgcAmDbylnnDUc/pom8WY+5gg3BEcOKP+cR6oJo3r0gC4xkn9gMHNedHcK3dDx3PHW53jCmDouH1H0KQBD7JSAZccqc4LsNhiS1jQbaoaJY+jbSM67m+AnmTyTFKwZ+K7E+HcEkODUq8Ic05QyiWd5vQbiDF+AWcBOkbYYhBj3yi47/RShxnWWd3VfUzAQLsWfRKxLTQue+Yfn/Aj/uiyl6d3+VtmD7Dn7H8Rn3GmQay3reGsPLb+sjyP0tCGaCJQwAT3omDVanlcS9WcDsaXWULuOhNZIU/pj83m/one5NG43CaK1sAiFuVJ8Y9jewV1XMELmXVrBXUWS66ijqqlgjrk3lY9WorEebQHxf+Ui4aNyiMKAjewqVU3Q/gFbyy58lzMsuifwW+293ITquCbQRVezCv+01wTgi2iSRbqMn07M1Zkmciygon14OS7MXtZrnafj6vLPLLYaCKRSCQSiUQikUgkEgnf/AfWGHvCN0m18wAAAABJRU5ErkJggg==;" vertex="1" parent="1">
          <mxGeometry x="270" y="410" width="70" height="70" as="geometry" />
        </mxCell>
        <mxCell id="bNvt7dfCmnMS55hBL8AI-33" style="edgeStyle=orthogonalEdgeStyle;rounded=0;orthogonalLoop=1;jettySize=auto;html=1;entryX=1;entryY=0.5;entryDx=0;entryDy=0;startArrow=open;startFill=0;" edge="1" parent="1" source="bNvt7dfCmnMS55hBL8AI-32" target="bNvt7dfCmnMS55hBL8AI-5">
          <mxGeometry relative="1" as="geometry">
            <Array as="points">
              <mxPoint x="120" y="730" />
              <mxPoint x="120" y="611" />
            </Array>
          </mxGeometry>
        </mxCell>
        <mxCell id="bNvt7dfCmnMS55hBL8AI-34" value="Integration" style="edgeLabel;html=1;align=center;verticalAlign=middle;resizable=0;points=[];" vertex="1" connectable="0" parent="bNvt7dfCmnMS55hBL8AI-33">
          <mxGeometry x="-0.4054" y="-1" relative="1" as="geometry">
            <mxPoint x="-17" y="-2" as="offset" />
          </mxGeometry>
        </mxCell>
        <mxCell id="bNvt7dfCmnMS55hBL8AI-32" value="Authentication&#xa;" style="shape=image;verticalLabelPosition=bottom;labelBackgroundColor=default;verticalAlign=top;aspect=fixed;imageAspect=0;image=data:image/png,iVBORw0KGgoAAAANSUhEUgAAAckAAABuCAMAAAB7jxihAAAA/FBMVEX///8OERgAAAA+z47///3//v8QEBgQEBoOERcOERoNEhcOERZ7fH28vLz///z8/Pz3//1BzZADBg/w7+9LxpAzt30xsXgABhEAAA2WmJqOj5FCRUUvrHQAAAU5w4Wztbfi5OTIyMgrpG43v4Hs//opnmlSUlUmlmQ60I3S09SEhIWlpqdub3O3t7gzMjc4wIBkZWff/PLQ9OchIig6Ojze3uDE8t0ghVYqKzAjj15cXV8aGx5KS06n5MuU2bxhxpZyy6JpyZ6F1bFVwYyu5tCz9dfG8+QkelQsh144lWs+pHdFsoHZ/PYYGCB11auR0rmhz7u12sp4x6ZZuZPjCjBgAAAYWElEQVR4nO1diV/bSJaWypIsWTZlJAiyibENxO0LMMHO0OCEXJPdnV52utP///+y7706VJIPzJFmSOubX0+DKJeq6nv16l3ltqwCBQoUKFCgQIECBQoUKFCgQIECBQq8SDjwj+u6nLsu/GA57nMPqMDD4DgWMWjVLddxXadg8qWCqHOc8/cf3p/Dj47z3AMq8EDglnS23t4clEo3bx3uFky+WCCR5zd9QOljnRd78iXDqX8ulUr9Umn73CmYfIkg28bZcpz3SCPg4C0Q+VNTyUHpCMCP/LlH86RAc+fdTqmUMrn13EP6kciw9zPJrIt4u9P/+zBpNec9gXnnuQfzlHBBRI9vSimT1k/OpGVVWSLAOs89lCeE6/L6MVo7pe2/EZM2IAhs1tn6adQruJK8/v4AWNz+OzFZIfg/EZNgtbpg7SjV+rdhEvdkxbZ/Ju0KduvbL6VSweSLh+sefyoVTP4EcOufS/1+weTLB1g7GSILJl8iHNe10NrpbxdMvnBw5/xLqV/K7Um3YPJlYcupo7XTBz9yu2DyJQM8yfpncUZmmPxWaNcXhrplgbUDOzKjXAsmXx64C9aOYLFfMPky4VoOB916vpPdjZLJd5bMPz8UjoOZa/NXy8wIcpdbW1sy1WsMCh7DBxH6McdHDvXHAQ5+WHe6srTBoZb67ZRYdl1zSiaT3OwFWvKl/YpuzHYOZQPNXuEXjo/Tma4YIjVMf4PVeUTCG95R/5Q7IZ+KSVxLy5rVmtVxddju8nxud3nnmUWR7TOf40Ig4kGt1h3E6wfJu6Mhvn1U64i+1zCJL4m77UajXRvgC5bLBz6NRa/NUTdWneaYxLLEuNagV1OjZXWKuDpW58Ro9XAisbi1/iHvfzwdk1bcuGQaV+3sHwdNiWHXHJPbUM+bcdp2qNp2cFCD6q3sNBrXcJA5qadf3XYvfTmzq4OF4WW1a9yY6ta99qpFNVsxdtnsLLydFq09Txvtj0CnLB5UjtVpXqStLoazhXlsChAeF6ydbaqle3ImofcGrLQdBBVcrXKQsOuaKXYnehKNzAfTlUqZrOlnMN0BtPBsiRZLGjxXiOOgYh4xlqhGMAKbsWkXDxSjXWZPDmGwHrUEJDAo1+IZlUubtmr0CthjbIKa2Xw7TLxms71Mo1F+i0NnnTFje4F6YwVazQdi6PcGlrdibGe79PRM4qx7LAx9YFLCDiM2NqZ8wvBpuRzkmNyP5Gcik0mREw6AySGseODJPm2glJ0OcoobxH3OxAqpdrSiw6zQG0zOLpivesWHns9OZ9let7jVtc1e6Se/xU6sDJMWH7N01gDPDlkvtnIASfPtTDuQyip/0J6EY5mKW0vb99Wua+wM1cKKT5kXVvyK2haY0a2wq7QJMFkO8PEik6J1hklKCQOTIMnhrVpGalcpJyynuK1B1ALJSV9fqcAvtscmy/dk0m21SOYEOdSrl7BuprUDi+8HNA1f9upXwkrZy43f7SGRxsaFViAXcaYrYNsPcPhGuyDw2f4C43dAFEXy44+Lpo5m0rXqzgqkpqXjLmd7i+Om8LxyuSyWW86JVbW9dsIqNN/snnSt/T07pNZRrMWlxpQyHcufygSxArCYbf1xlLEZi+CP+PIy0QKtvTD0oF3VHGRV9WpfRCGN1UeoF3hIpRwBqu82gybUrCy4xt9C+BDsSs2Ro3qV+wyZx19ZLz0FwQLuMc9LZVGWLmCz0/ieCpYuY9U/H6wiEpl0lWG2QJYr/ma5OVvTQBPm48O0vXJg7+0pGfXtVNBPQHTp2X2YtFvy3x5BMRmyrmYSJMWLPLHoXlnTQkyGrLaMSWBPMBkifCUqIZyfagQcxMOnTuH/Avle7Bb/SU/0rXSowCNOXO10mGWqx5BIfdTrMUjG72f1uOiSfT3rb6/alAf/PL4T9dUHacyADR/mDcrfnl7SmYDDDaJT1eRhTNpyy3hlk0k/CtVi0q7waME920/ITErwd1xzL329yaSSDL+SHgfIZGsq+8RxnUayVy9spb3iA5+NVZcOv4xkBxHYWKdg1EjebcOAq7KQxg7/RNQX6vayJ1ajSQbM5gBt8Q2tnZXq9Zf/Qvy3wP8I/EvgN4E/P74/pzr1JfuyAeZM6OMkr2ZI7Og6kXLKlDfwQCbFn5ChRGpXIhXVtiSyw/ABbsGI7Tdq3dqox2iTUrtaGp/IMulLgiKDWjA6KVDhcPcEew1RHCJ2Nep2a419FvqCWj9lqStl1mPzLvr6tVNpZwfQl1h5aCOl0PfZRbVdOxlNIuZJxv17B5zc/70BQ6e/ksk3/yD8+uuvv/zyyxvE4eFrwKtXu7tHR0cHB2ewcW/eUVeLTE6TMjEJC+yI5SVZRSaHj2YyYheTxqgxuRC2vji6xALgUdRkUpkmoTrABpeJPDhbk/RdJpMw1GQyOqm1q5fiaYirHYUuR7MAjNN5QsoXXjSdyc+3WSh2ZZkYJ4yl+k966ETCkQdHomByryeZ5FPazcD4XjKSH4sb6uAMcINvHCJAt6r+fRtovItJQeQvgshDk0hg8qBf2nm3VBNwBga9D0xGMXdcOlcHIKzBHoj9/OFMirOEXUu/ndfEqnvoPQhjBpcO1aAfhnbZ71hcmtkd9Fw89DPCVO4Ek74NH4ezbij3lXsSJnC2wbtgbdGUQgMPNjr8Br0GyZxL453jsDz8dNDSNvlUOpKoejg1iqEn38f9rgUAh+KDm3U5k/FGnm7mwFTDdxLpbjn1D6utHc3kr7+mW1IRqZk8wA76O+d4+Tn/hpnw/2w4lpTxZ11hIKPanqmY6f2Z9GkLoG+mQiZ8wsry4AwYFzGBGE4dRJDxTYZMmRQz/UwwGZLeZUagKT5tBbLXPZQ77LXNWsA5CKPxeeExESryAb+WD3A0UmaaeBCORwNJEGxJMWDsyli5tpDWir0YR1gJfMHXgyXhgDVMpjtSMynafagvuTE7kHoLfULxV+6cDCm46Ch3+wF7Eols9SjGLlcF5MNWTKJZigHP5hVugCS6THUUd7osDPVmkZB7Eo86eKpbwza68Gyl62KhsgdDjP21EpZqZxCnJhM+hj4o41AxOZCGC7cGVRH21WujTKCRDimQgzBPBJNJb/MLR64D1s4dTB5mdKuxI7NM9j8dL2xJDrpITWgsFtIRu8gMKTyASbL4uWVenOcqcCfUq/xDpzacw6sdSx45aGUoJlM/pCp1MxDZzM6gm8pHO/UDZ+3xFH5X74anQyZNXWWm8AtJUzRX4X/ZVo94qKS8xZ0t7aJzR25KDDltFOlxaRnOb/pL8h95JvO6VRK5mypXYPLL+TL/R62Ex6btjjAq803uz6SHXvjIFAcXo15y90RTleUSf4zp42qnXSXSfzHc+Krq1WN5E2OepPLBzTfGMWXVRL/xha0ktqM+KM/JoHXRmNFGdbkpv3iSCrJbYyuLjmZyMdi/BKS76x9L6xwQYujQsFsPTSKP5JYUH+9vny8ToCvwkOBcg3UCf+H6qtldPMUfyGRMgqxbOzGTkR6f6KAsJs3TURuUx93RPlP+vHF6aiazoR+UurYKsEZzVGFSp3BSL6IN79QaF3tBOcdkU+pOeBtjt73hSccVAqb6juW07dbkpJ3BKFFMnlgbgNKCH+7Yj2JPat16mDskz2hHioKR/s7xMq0O9lmAITo6b8g/P8WsDcqyMh0foF0DsBxzb3Osntg+vsc6Mgqp3SI+qDXG84SJnIydMukYTILxaZo7Aup48O1ruV3xSOMiPzloNydTw/VUTIpAIVqqYONidJ/c3stqV2h9IWNgDEprqsVykMJj5wK5q5iE2X7duZvI0ut/LDNbiUrFJJ60/Y/1pefzZWIGkXFWlFayUu/zIf5kkD/QLIfigijLKR+k+2ajKxE+SfzMQBaYXFb9wS0ZqoFe9aGFlA6aIvHY2sv1qpi0wJr2fD/Uf/GjFrvAI4FKIVw8gkN7HYDJnIpYxaT1bWeDLVl6vWC2ZpgsUTKsj/HZpWUSg1xCAD2oFpsYSf6HMTlamM9IM6lsGTQ1exQDKpft7IovZdLMn6lepV+ITMoBw2dOTkWvgZ2HZpLHUYLBgpRJOyhHIppATLeVO7SGyfwJuhzu+c0GPJZKrwy79XVmS0omSbdufz7my8KvGEneyzHplW122dFNHsZkPn+ljzRiksx+2JJV1sKQzkKYejmT9m3e4HGUyVNBN0Q4E5jzTMpG5F4SZTBJn52xxGQStTemHgdkObkoeHcxuWALLSey/nmTHamYXLYllb2DRtOnc9T+i0zCcnavzRCbyDXYyXXsPNyfXMKktYTJeEppY3PNE5VDWcqkt8jkvtausZzPIGp5+V71QamZxKNyyjyTSUqURSKi4OJw79yTG2lX991BvrR1FZMmkZpJFd8R4rDz1nHry7Qr51tWPDRKJQSTMErtWa9mMriHduWGdhXnpMvnDEM0FI0ti1xDMp9oL2SByWDxnHSsU6ldbeWgdFqkYzCVVfb26LC8vZpHMoKge6BweyMya0QoReq3Ll2aXk0zmTd4UmzEZP3j0gKsBWwDk9L/OMwSqaMC2/2Dr+tfFoP1j2yKMg+R29POUk1mmu1FJu1VTObF1Ukzu3Yogl+uMoF8vxKCyTxutjFONtDRusU96bNBrkbSiqVF40fXspqnJ3Z1EPhou1UbNfQWG7rXju4VwakaDCduq7KACgqhS+EvNe3uKsw2iQwcfyltyKThSS5uSWzS3/6w/tsmReFhs9fCYiciEplUh0DKZNOI/XP3dDWTvh1dZ18BDS6EivMx+kP1k9KjA5clHOmOu2zlnrTzZj+8tivjDT76k46VRn2CgE3TKFFzOZM4cbfbuIokmyRo9gWV6XY0k3n1ck8cC+fhbuyaTL7KMblNRH4/5usrFWSMlQ9GeHJ5lFfyfLm6msnMAe9yNdMlEXRYtQXXT4V47ehSrOVI+ebly9jaEjXI7nomo4v8yNVG91W5ykR6VQEeD1yUNnNrmCxaPBbVitDPfDbqMWnphp7UwBeRnvayaiisq+GbZJqPdzY7JoHJN6l2NZjUp2T/5pyySEshS7W5joSOWCiZVEdKVzFpJ8aedLtrmAzBLe2ZyTuQlCvluOJmx/ZXLbXmNRyfDJWNVjMZBh47ydbRdVggrRqKu2I8NdUU2o/iwG9uT3Lps3AdNuzKjkJlkY1bKqUcO9la5e581BHf3rEBkRaWnG/M5OEK5YqBvv7OO2ftt4TNTqrTE7XgHI4UxaTcVfrAsDPFNZPWOiZBO7dNXQzyoIM3J2I4p1Lmw4SnwR7sdjWToPhjU5rAvVfFe5QLoRiblLoeRu9Ur8wLF/dkp9acN9NYbU1lrkGd4nBOdC6kmsvR49m63xy4Gyaa329Co2DycIm9o7YkWjvu0iwzSiacES1phMnYJ6Zqy2VwDsqKyZnmILrkMt0q5r3ynAzh0BGSoNZpxnzZiwdrTiHza8lkdMop+kqIVUp+kUkfevBac26RHqZyliaWMAri5kKrzJi587dkerjLlLehmByMJtdUd57G7rkg21cHY4w1Ix5awalL5WAwsM38CpY5R+ONrhW4x190GqS/BkK7Zrfk0dGZtHegiw/15S8gy49qjICRJFZFkc4AazIqoV+WqVrHYlSeTnpmP5ZauK3XcGX1B8q2YrKdPlfHDr+WkhAStRh2Acmv6jqZxbireHw5EBeOYKnH6XNMYmWYbPXwKBMU8f3IMyPowEZCE8d0hiOzqDyWTmeIJc74uSEri2pLmolLCXKOBQj0ydBPphvlJ7kjg3Xb6wFMHh4aTBoR1wPUz9+PVyhzEtZpJMWwp6ULx2+HII+JCo3BgkkL3WtFzUEcz9pzZnjNK5iEXXk66oDC7rT3jeaY2qXmSrvSHtjSAnIHk+WETbox5/GsGaWPo7LMheoMRqjfY1ENX47JcUsUWe5hMEsUALW1lySz2R2mivJCUa+GAOdbzCX0jRToOmy51rebg032ZPaYzDJZujlfVehKItxQXgOby6GO6JgE/Zj0VEvtI3vwB+ESJ7adRkCieGspk+UArPvby1szF4ERB5lw0lamnUg9HjexdOoOJjGi1rq49JgpTFhpJXaWyiCH0bQjeu1MmL3AZJfcEs+3k0v5clWfA0yq9zaFIQ9mPDi8+w0srrtKlI3lR+Fa8yNlEhodf/2/my9fvuysw81va5zJ/s63lSXLZPNLAwG84ojNm6PR8JRRiXdAEkeAE+wyUp6fcTkiRbKcScVz5je/1bFkWXxbWysRm5x0a+1xxIwY2wom5VWUKBNJa+3jvqK2yuKsVJJkiJWXV4wZgTt5Tjr8VNXjRmxaHY2a8/SAHmqGpokn/WvPExW5LTtNu9U2LP7A7B0ccfW78G/Qrq/zW/JM2DsHX52V9hVqV4yz3FKYyrdFZGtPlPYHdnQrD044H7QVJ6665LlqLWcSq8QxB5gW/gt+1AWH+FYG2kCOaJlaKsC0mkmfNAGWA5qdYvXWlmRSua3Yq1x70WuWST1SPwwjmnjaWSe1bjFSIoo76Y2VsBIqQw+LVjZjEo1scRtgfavfF7akrvo4WGXtCCap62kCIwtpYQIcpE/yG/isJseJlZpYTiVu7gRBIC5H2EFL3SIBf0vNSduu2Im87GPj/+jeBSippnFzeKS+IhJbePhmUMit28Bg0jKZrPi3tx7d4KjgxpADCXy6oqCvYU2Yvt+CExM8RrdqI83E3B04/WlUUjYDMvzwkg9lVqX1B3IR4Z+xhU9S5EtJDtg+30y5bo7fl2RBiMh+6eOxy+8ShM51EpjXLOAHTFGCijHKjWKRjxaazRclU2ycUOuQbmVkmER/csrEnI3LfCFV4KcBFhAQuu0ntBwZFx6bNFuy1zRIVmX4oFIJL2vM6NQWA4lAzaX3V3l8HYW+cpCwgplsz3nki15VNJnzubohqNQM/du8pQbSMQiZoYX0yUJW/FN/J/vvMi+pE5OCSWnt3MUk+I9TZqaASL1R7Mv06+NLlp0wUN1lYn/6y5hko4a4nGgbi4R2CTeY5PtMHzviThebY1ydNpVRdaC+3zW8hn28lx9IZWAIHYx65rf0WVYWRFbBSBeZDqOIive0j5vyxK64GdCA5emZ8xDtynCwP+rLBpbjdyPmaiYm0dqxNrkki+neDJM2a43yAscnmL0lmgKyYBugedSJNsgz6WOs+yRhOpNLN4h6qNmy308wZomnr1yBgzHWyS9b32bg+juXo5CyqZ6+gwUix6oL32HQmeOtZ9Wr18K4+5XMe2Yu3jXwzjW+3pcTY6yZmzcWBUZ4N5A+ra6SXG/mf9wTfyxmJumMPHgvDtr1VOL3WliDibDKEGj3DElz5D7ZxcRXBAoKbxqgexXrNF1bh3V1LgRXL25i/CgC4L+vumppUjjUK6UIw0ReS9cX3Pd1s7F5Dx6TiqyFvVJwaiZnkQKG3r7G9+Kiw5snM3g0VD2kOx033FDMyQcTCgc5ni2oTEwTjS7IcCJtDR+4HnHrYXea1wOYfL1o75wdfK6L6a2nEstqt0B7tqvyawNOqzVu4bewZGSA7sDMRuPThCXT8Si2toRuEdc2029MSfOTDWJ30BxPLy6mk2ENbxY4PLfmqGtnjasABanXHFBAn6u7oDqKZnF1ORQ+jyZqtzk5vb2cjptdThG5bK9UGdcdzlF87KtGhypZuezDVIkYteEn1X0x8YtxO7Zy99ctykjDG2eNifjui8qkMRAj35SfzSGZ1IE6oVvPPq2K7awGj+OV49tQBE3tep+Loj/mP9a3aa8w8TWXdfQ81rZ6Avzx5nXWlyTl+uU89/0Zfw1MJn9K/Mj/hpBg8pURFTg7ONj9Rmrzvn09epyZPfnYzv4j8QOpzDOJAZ6j9/iXh337z6Pw8zP5A7HA5MHZEVg7SyvpfjgKJh8BYjJT5Xp2c+w6D/sSp8eiYPIRSJk8OgIm4ZD87fwH2YJ3o2DyEfgje/X17Gz3nVUvmHyB+OMw40we7X4AHp/rq3sLJh+Bb28yPsjudyDSLZh8gXj7JuNMfqq77mZ1mD8CBZOPgMnk2RlYOxZdGnse1JjIV/+0MZ4fibdv0sQkWjvPCG58q2/+TnOBO5EyCUS+r9+Rxfqh4DzuKMTPEpl40UAmd4nKs6Pva+p2/mI88JvC/854e6iV65/HzxJsLfA00Ewe/fZ21X/x4q+D8Y1JBe4H9/xwl5Tr2atvzxakK/AUOD8UHsjuv58tRlfgSXD8L0Hk94LIl416/Tt+k+vun/ev2ynwHwXXPf/z9avXf54/90AKPBIud4//+PDH8XNGWwsUKFCgQIECBQoUKFCgQIECBQoUKFCgQIECBdbj/wElcnHq2mqvYwAAAABJRU5ErkJggg==;" vertex="1" parent="1">
          <mxGeometry x="366.90999999999997" y="710" width="166.18" height="40" as="geometry" />
        </mxCell>
      </root>
    </mxGraphModel>
  </diagram>
</mxfile>
